<?xml version="1.0" encoding="UTF-8" standalone="no"?>
<!-- Created with Inkscape (http://www.inkscape.org/) -->

<svg
   width="210mm"
   height="297mm"
   viewBox="0 0 210 297"
   version="1.1"
   id="svg5"
   inkscape:version="1.1 (c68e22c387, 2021-05-23)"
   sodipodi:docname="week5-1.svg"
   xmlns:inkscape="http://www.inkscape.org/namespaces/inkscape"
   xmlns:sodipodi="http://sodipodi.sourceforge.net/DTD/sodipodi-0.dtd"
   xmlns="http://www.w3.org/2000/svg"
   xmlns:svg="http://www.w3.org/2000/svg">
  <sodipodi:namedview
     id="namedview7"
     pagecolor="#ffffff"
     bordercolor="#666666"
     borderopacity="1.0"
     inkscape:pageshadow="2"
     inkscape:pageopacity="0.0"
     inkscape:pagecheckerboard="0"
     inkscape:document-units="mm"
     showgrid="false"
     showguides="true"
     inkscape:guide-bbox="true"
     inkscape:lockguides="false"
     inkscape:zoom="0.77771465"
     inkscape:cx="143.36878"
     inkscape:cy="458.39435"
     inkscape:window-width="3440"
     inkscape:window-height="1377"
     inkscape:window-x="-8"
     inkscape:window-y="-8"
     inkscape:window-maximized="1"
     inkscape:current-layer="layer1">
    <sodipodi:guide
       position="143.90721,202.76289"
       orientation="0,-1"
       id="guide44"
       inkscape:locked="false" />
    <sodipodi:guide
       position="157.17525,93.216497"
       orientation="0,-1"
       id="guide46"
       inkscape:locked="false" />
    <sodipodi:guide
       position="190.17525,256.85568"
       orientation="0,-1"
       id="guide48"
       inkscape:locked="false" />
    <sodipodi:guide
       position="40.824741,239.50516"
       orientation="1,0"
       id="guide50"
       inkscape:locked="false" />
    <sodipodi:guide
       position="163.63917,229.63918"
       orientation="1,0"
       id="guide52"
       inkscape:locked="false" />
    <sodipodi:guide
       position="140.16495,189.15464"
       orientation="1,0"
       id="guide54"
       inkscape:locked="false" />
  </sodipodi:namedview>
  <defs
     id="defs2">
    <inkscape:perspective
       sodipodi:type="inkscape:persp3d"
       inkscape:vp_x="0 : 148.5 : 1"
       inkscape:vp_y="0 : 1000 : 0"
       inkscape:vp_z="210 : 148.5 : 1"
       inkscape:persp3d-origin="105 : 99 : 1"
       id="perspective2732" />
    <inkscape:path-effect
       effect="spiro"
       id="path-effect2686"
       is_visible="true"
       lpeversion="1" />
  </defs>
  <g
     inkscape:label="Layer 1"
     inkscape:groupmode="layer"
     id="layer1">
    <path
       style="fill:none;stroke:#000000;stroke-width:0.264583px;stroke-linecap:butt;stroke-linejoin:miter;stroke-opacity:1"
       d="M 40.262351,93.980101 163.63917,41.082959 140.16441,203.94502 Z"
       id="path42" />
    <path
       style="fill:none;stroke:#000000;stroke-width:0.264583px;stroke-linecap:butt;stroke-linejoin:miter;stroke-opacity:1"
       d="M 75.525772,31.639174 61.917526,167.72165 187.79381,116.69072 Z"
       id="path1680" />
    <ellipse
       style="fill:#e3dbdb;stroke-width:0.264583"
       id="path1728"
       cx="87.603088"
       cy="201.40205"
       rx="39.974228"
       ry="17.350515" />
    <path
       style="fill:none;stroke:#000000;stroke-width:0.264583px;stroke-linecap:butt;stroke-linejoin:miter;stroke-opacity:1"
       d="m 47.628865,203.7835 c 26.797251,0.91849 53.766885,-10.6075 71.623325,-30.6096 17.85643,-20.0021 26.26135,-48.10134 22.32096,-74.62321 C 137.63276,72.02882 121.42171,47.586811 98.521438,33.639995 75.621163,19.693179 46.465538,16.505797 21.092783,25.175257 0.82479391,32.100501 -16.846153,46.368035 -27.886088,64.72206 c -11.039934,18.354025 -15.362329,40.65108 -11.979393,61.80069 3.382935,21.14962 14.444924,40.98623 30.6605461,54.97923 16.2156218,13.99299 37.4580239,22.03265 58.8750369,22.28152 0.1134,0.001 0.226825,0.002 0.340206,0 1.283235,-0.0275 2.544625,-0.52076 3.534585,-1.33772 0.989961,-0.81696 1.708267,-1.9481 2.069672,-3.1797 0.361404,-1.2316 0.37033,-2.55863 0.06916,-3.80633 -0.301167,-1.24769 -0.907812,-2.41533 -1.720846,-3.40852 -1.626068,-1.98637 -4.039387,-3.23364 -6.552192,-3.75861 -2.512805,-0.52497 -5.12698,-0.37141 -7.652408,0.089 -5.050856,0.92086 -9.872205,3.05061 -14.991797,3.4365 -2.559795,0.19295 -5.194429,-0.0712 -7.542381,-1.10896 -2.347953,-1.03774 -4.38698,-2.9041 -5.316888,-5.29681 -0.790181,-2.03318 -0.741704,-4.34088 -0.07308,-6.41721 0.668621,-2.07633 1.928542,-3.93071 3.45835,-5.48567 3.059615,-3.10993 7.099389,-5.01269 10.903393,-7.14867 17.758196,-9.97138 31.792687,-26.41755 38.81643,-45.53427 C 72.036049,101.70983 71.985063,80.077255 64.84042,61.005389 57.695777,41.933524 43.51097,25.584446 25.621798,15.849997 7.7326261,6.1155472 -13.711459,3.0848248 -33.590524,7.5125517 -53.469588,11.940279 -71.609147,23.794651 -83.61866,40.243165 c -12.009512,16.448513 -17.77684,37.349377 -15.869309,57.626046 1.907534,20.276669 11.479675,39.745199 26.394489,53.613519 14.914814,13.86832 35.039729,22.00349 55.402759,22.36263 11.2762801,0.19888 22.6380503,-1.88552 33.779019,-0.13257 5.570485,0.87648 11.064984,2.75279 15.609483,6.09136 4.544499,3.33857 8.076096,8.23294 9.126959,13.77317 0.636386,3.35507 0.36299,6.81063 0,10.20618 -3.347811,31.31674 -14.29588,61.86965 -32.1270783,87.83105 -17.8311982,25.96141 -42.5625017,47.23577 -71.1670927,60.41619 -28.604592,13.18042 -61.028369,18.15485 -92.182779,13.53435 -31.15441,-4.6205 -60.89797,-18.90683 -83.55041,-40.78862 -22.65245,-21.8818 -38.01921,-51.3148 -42.41422,-82.50182 -4.39501,-31.18702 2.32785,-63.92598 19.17855,-90.53426 16.85069,-26.60827 43.78941,-46.7796 74.227,-54.872759 30.43759,-8.093156 64.07248,-3.878353 91.273147,11.998349 25.659879,14.97736 44.515947,38.98375 66.138724,59.36036 10.811388,10.18831 22.5188713,19.61196 35.7803774,26.30674 13.2615066,6.69479 28.2115526,10.56615 43.0087326,9.25042 15.704573,-1.39641 30.342742,-8.47416 43.823664,-16.65024 13.480925,-8.17609 26.262335,-17.58996 40.461365,-24.44351 14.19903,-6.85354 30.32089,-11.06405 45.78008,-7.96611 7.72959,1.54898 15.14765,4.95145 21.02992,10.19976 5.88227,5.24831 10.16208,12.38394 11.52352,20.14876 1.38825,7.91773 -0.3047,16.25419 -4.24257,23.2621 -3.93787,7.00792 -10.0382,12.70147 -17.0663,16.6032 -14.05619,7.80347 -31.18056,8.33434 -46.9469,5.189 -15.76634,-3.14535 -30.6137,-9.67543 -45.621489,-15.44059 -15.007788,-5.76516 -30.623088,-10.85806 -46.700053,-10.90237 -20.398613,-0.0562 -40.584605,8.38849 -55.2852544,22.53054 -14.7006486,14.14204 -23.8702416,33.75442 -25.8959866,54.05227 -2.025744,20.29786 2.994566,41.13951 13.522858,58.61125 10.5282928,17.47174 26.4409202,31.5472 44.807267,40.42322 18.366347,8.87603 39.105896,12.59676 59.462015,11.27957 20.356123,-1.31718 40.302943,-7.61159 58.046573,-17.67491 35.48725,-20.12663 61.3932,-54.932 75.10541,-93.35597 10.92473,-30.61299 14.50711,-64.56976 5.36082,-95.7603 -4.57315,-15.59528 -12.30396,-30.32685 -23.02816,-42.53823 -10.72419,-12.21138 -24.47324,-21.85028 -39.82807,-27.17525 -15.35484,-5.32497 -32.30067,-6.24755 -47.99191,-2.0154 -15.691244,4.23215 -30.023875,13.69667 -39.587594,26.83674 -9.56372,13.14007 -14.176287,29.92251 -12.070119,46.03742 2.106167,16.1149 11.058531,31.33515 24.464624,40.52225 11.55631,7.91946 26.179489,11.212 40.024389,9.07077 13.8449,-2.14123 26.77202,-9.68039 35.50138,-20.63778 6.71587,-8.43 10.93343,-18.70672 12.85223,-29.31266 1.91879,-10.60595 1.59635,-21.5415 -0.16093,-32.1754 -3.51458,-21.26779 -12.60767,-41.13188 -20.93006,-61.016773 -8.32239,-19.884893 -16.0578,-40.552182 -16.59893,-62.101623 -0.27057,-10.774721 1.31096,-21.6707061 5.37857,-31.6518057 4.06761,-9.9810993 10.69179,-19.0190153 19.45912,-25.2881283 5.87071,-4.197875 12.64905,-7.119575 19.73196,-8.505156"
       id="path2684"
       inkscape:path-effect="#path-effect2686"
       inkscape:original-d="M 47.628865,203.7835 C 38.78377,144.24768 29.938408,84.711602 21.092783,25.175257 12.247158,-34.361088 40.144594,144.24768 49.670102,203.7835 c 9.52551,59.53582 0.22707,2.7e-4 0.340206,0 0.113139,-2.6e-4 -25.401796,-12.24716 -38.103092,-18.37113 -12.701295,-6.12398 9.526038,-12.70077 14.28866,-19.05155 4.762623,-6.35078 -29.2574671,4.98996 -43.886597,7.48454 -14.62913,2.49458 39.010572,13.1549 58.515461,19.73196 19.504889,6.57705 2.64e-4,6.80438 0,10.20618 -2.65e-4,3.4018 -91.17499,-63.27808 -136.762883,-94.91752 -45.587897,-31.63944 96.61881994,63.27861 144.927834,94.91752 48.309014,31.63891 108.412629,-12.47396 162.618549,-18.71134 54.20593,-6.23737 -107.05128,12.47449 -160.577312,18.71134 -53.5260379,6.23685 113.175522,50.57758 169.762882,75.86597 56.58736,25.2884 -88.45334,-36.06158 -132.680409,-54.09277 -44.227067,-18.03119 50.350779,-7.71108 75.525769,-11.56701 25.17499,-3.85594 2.6e-4,-161.030664 0,-241.54639 -2.7e-4,-80.51573 13.15491,-5.669839 19.73196,-8.505156" />
    <g
       sodipodi:type="inkscape:box3d"
       id="g2734"
       style="fill:#e3dbdb"
       inkscape:perspectiveID="#perspective2732"
       inkscape:corner0="-1.7383645 : 0.1021256 : 0 : 1"
       inkscape:corner7="-1.7754683 : 0.084456029 : 0.25 : 1">
      <path
         sodipodi:type="inkscape:box3dside"
         id="path2740"
         style="fill:#8686bf;fill-rule:evenodd;stroke:none;stroke-linejoin:round"
         inkscape:box3dsidetype="3"
         d="m -142.20619,219.7732 6.80413,-3.4102 v -22.78568 l -6.80413,2.26519 z"
         points="-135.40206,216.363 -135.40206,193.57732 -142.20619,195.84251 -142.20619,219.7732 " />
      <path
         sodipodi:type="inkscape:box3dside"
         id="path2744"
         style="fill:#afafde;fill-rule:evenodd;stroke:none;stroke-linejoin:round"
         inkscape:box3dsidetype="13"
         d="m -142.20619,195.84251 6.80413,-2.26519 -164.33059,21.44626 -22.77237,5.05417 z"
         points="-135.40206,193.57732 -299.73265,215.02358 -322.50502,220.07775 -142.20619,195.84251 " />
      <path
         sodipodi:type="inkscape:box3dside"
         id="path2736"
         style="fill:#353564;fill-rule:evenodd;stroke:none;stroke-linejoin:round"
         inkscape:box3dsidetype="6"
         d="m -142.20619,219.7732 v -23.93069 l -180.29883,24.23524 v 36.18111 z"
         points="-142.20619,195.84251 -322.50502,220.07775 -322.50502,256.25886 -142.20619,219.7732 " />
      <path
         sodipodi:type="inkscape:box3dside"
         id="path2738"
         style="fill:#4d4d9f;fill-rule:evenodd;stroke:none;stroke-linejoin:round"
         inkscape:box3dsidetype="5"
         d="m -142.20619,219.7732 6.80413,-3.4102 -164.33059,32.28691 -22.77237,7.60895 z"
         points="-135.40206,216.363 -299.73265,248.64991 -322.50502,256.25886 -142.20619,219.7732 " />
      <path
         sodipodi:type="inkscape:box3dside"
         id="path2742"
         style="fill:#d7d7ff;fill-rule:evenodd;stroke:none;stroke-linejoin:round"
         inkscape:box3dsidetype="14"
         d="m -135.40206,216.363 v -22.78568 l -164.33059,21.44626 v 33.62633 z"
         points="-135.40206,193.57732 -299.73265,215.02358 -299.73265,248.64991 -135.40206,216.363 " />
      <path
         sodipodi:type="inkscape:box3dside"
         id="path2746"
         style="fill:#e9e9ff;fill-rule:evenodd;stroke:none;stroke-linejoin:round"
         inkscape:box3dsidetype="11"
         d="m -322.50502,256.25886 22.77237,-7.60895 v -33.62633 l -22.77237,5.05417 z"
         points="-299.73265,248.64991 -299.73265,215.02358 -322.50502,220.07775 -322.50502,256.25886 " />
    </g>
    <path
       sodipodi:type="spiral"
       style="fill:none;fill-rule:evenodd;stroke:#000000"
       id="path2771"
       sodipodi:cx="-972.07892"
       sodipodi:cy="614.62134"
       sodipodi:expansion="1"
       sodipodi:revolution="3"
       sodipodi:radius="138.87437"
       sodipodi:argument="-19.78611"
       sodipodi:t0="0"
       d="m -972.07892,614.62134 c 4.12601,-5.6088 9.59617,2.7946 9.32219,6.8577 -0.74249,11.01076 -14.12374,14.80083 -23.03759,11.78667 -15.94478,-5.39163 -20.69938,-24.97503 -14.25118,-39.21748 9.4631,-20.90137 35.96339,-26.7447 55.39739,-16.71563 25.90246,13.36717 32.85082,46.99901 19.18011,71.57725 -17.20318,30.9292 -58.05689,38.98805 -87.7571,21.64459 -35.971,-21.00525 -45.1433,-69.12722 -24.1091,-103.93701 24.788,-41.02214 80.20531,-51.30972 120.1169,-26.57357 46.07951,28.55887 57.48368,91.28858 29.03804,136.29679 -32.32175,51.14119 -102.37548,63.66293 -152.47664,31.50253 -56.206,-36.0791 -69.846,-113.46504 -33.967,-168.65656 39.8324,-61.27305 124.55656,-76.0319 184.8364,-36.43149"
       transform="scale(0.26458333)" />
    <path
       sodipodi:type="spiral"
       style="fill:none;fill-rule:evenodd;stroke:#000000"
       id="path2773"
       sodipodi:cx="-740.63153"
       sodipodi:cy="658.33917"
       sodipodi:expansion="1"
       sodipodi:revolution="3"
       sodipodi:radius="114.43786"
       sodipodi:argument="-20.420353"
       sodipodi:t0="0"
       d="m -740.63153,658.33917 c 0,-5.73773 7.73435,-2.8308 9.53649,0 4.88369,7.67127 -2.14783,16.72109 -9.53648,19.07298 -13.21655,4.20697 -25.93513,-6.47043 -28.60948,-19.07296 -3.92471,-18.49472 10.81236,-35.31346 28.60944,-38.14597 23.72072,-3.77529 44.75529,15.15599 47.68247,38.14592 3.68356,28.93048 -19.49918,54.22861 -47.6824,57.21896 -34.13366,3.62172 -63.71994,-23.84187 -66.75546,-57.21888 -3.57725,-39.33365 28.18421,-73.22253 66.75537,-76.29195 44.53192,-3.54377 82.73263,32.52631 85.82844,76.29184 3.51766,49.72918 -36.86827,92.24802 -85.82833,95.36494 -54.92578,3.49673 -101.76722,-41.21011 -104.90143,-95.36481 -3.47957,-60.12197 45.5519,-111.2893 104.90129,-114.43793"
       transform="scale(0.26458333)" />
    <path
       sodipodi:type="star"
       style="fill:#e3dbdb"
       id="path2797"
       inkscape:flatsided="false"
       sodipodi:sides="5"
       sodipodi:cx="-595.33405"
       sodipodi:cy="550.33038"
       sodipodi:r1="92.721703"
       sodipodi:r2="46.360851"
       sodipodi:arg1="-0.98279372"
       sodipodi:arg2="-0.35447519"
       inkscape:rounded="0"
       inkscape:randomized="0"
       d="m -543.9013,473.18126 -7.9542,61.05735 45.78822,41.16683 -60.52698,11.30286 -25.00264,56.26844 -29.45352,-54.0718 -61.24071,-6.39102 42.3237,-44.72107 -12.8462,-60.2183 55.61101,26.43265 z"
       transform="scale(0.26458333)"
       inkscape:transform-center-x="-0.30555406"
       inkscape:transform-center-y="2.0501537" />
    <path
       sodipodi:type="star"
       style="fill:#e3dbdb"
       id="path2799"
       inkscape:flatsided="false"
       sodipodi:sides="5"
       sodipodi:cx="-749.63226"
       sodipodi:cy="398.60379"
       sodipodi:r1="99.806366"
       sodipodi:r2="49.903183"
       sodipodi:arg1="-1.3101939"
       sodipodi:arg2="-0.6818754"
       inkscape:rounded="0"
       inkscape:randomized="0"
       d="m -723.91589,302.16739 13.02806,64.98491 60.91883,26.10873 -57.77843,32.47187 -6.00593,66.00528 -48.73709,-44.91619 -64.63069,14.68478 27.65725,-60.2316 -33.93804,-56.92959 65.83021,7.69102 z"
       transform="scale(0.26458333)"
       inkscape:transform-center-x="-2.1025923"
       inkscape:transform-center-y="-0.43682953" />
    <path
       sodipodi:type="star"
       style="fill:#e3dbdb"
       id="path2801"
       inkscape:flatsided="false"
       sodipodi:sides="5"
       sodipodi:cx="-956.64911"
       sodipodi:cy="356.17175"
       sodipodi:r1="104.49995"
       sodipodi:r2="52.249977"
       sodipodi:arg1="-0.96914264"
       sodipodi:arg2="-0.3408241"
       inkscape:rounded="0"
       inkscape:randomized="0"
       d="m -897.50145,270.02192 -9.90313,68.68455 50.96646,47.09628 -68.38312,11.80627 -29.04172,63.02553 -32.35998,-61.38788 -68.91526,-8.14436 48.3836,-49.74606 -13.5502,-68.05902 62.26262,30.64312 z"
       transform="scale(0.26458333)"
       inkscape:transform-center-x="-0.22780042"
       inkscape:transform-center-y="2.4226516" />
    <path
       sodipodi:type="star"
       style="fill:#e3dbdb"
       id="path2803"
       inkscape:flatsided="false"
       sodipodi:sides="5"
       sodipodi:cx="-1245.9583"
       sodipodi:cy="513.04163"
       sodipodi:r1="159.06776"
       sodipodi:r2="79.53389"
       sodipodi:arg1="-0.96934162"
       sodipodi:arg2="-0.34102309"
       inkscape:rounded="0"
       inkscape:randomized="0"
       d="m -1155.951,381.88813 -15.0535,104.55327 77.5944,71.6736 -104.0878,17.99198 -44.1877,95.94502 -49.2763,-93.43362 -104.9039,-12.37631 73.6335,-75.73713 -20.6466,-103.594 94.7843,46.62549 z"
       transform="scale(0.26458333)"
       inkscape:transform-center-x="-0.34933959"
       inkscape:transform-center-y="3.6852309" />
    <path
       sodipodi:type="star"
       style="fill:#e3dbdb"
       id="path2805"
       inkscape:flatsided="false"
       sodipodi:sides="5"
       sodipodi:cx="-1446.546"
       sodipodi:cy="912.93121"
       sodipodi:r1="238.43182"
       sodipodi:r2="119.21592"
       sodipodi:arg1="-1.0516502"
       sodipodi:arg2="-0.42333168"
       inkscape:rounded="0"
       inkscape:randomized="0"
       d="m -1328.2507,705.91442 -9.6031,158.04286 124.7477,97.50776 -153.2752,39.70476 -54.1862,148.7738 -85.1262,-133.504 -158.2367,-5.5605 100.6644,-122.2148 -43.6094,-152.21032 147.3401,57.97105 z"
       transform="scale(0.26458333)"
       inkscape:transform-center-x="-2.1240266"
       inkscape:transform-center-y="3.9681583" />
    <path
       sodipodi:type="star"
       style="fill:#e3dbdb"
       id="path2807"
       inkscape:flatsided="false"
       sodipodi:sides="5"
       sodipodi:cx="-498.89764"
       sodipodi:cy="685.34137"
       sodipodi:r1="65.286171"
       sodipodi:r2="32.643085"
       sodipodi:arg1="-1.0101093"
       sodipodi:arg2="-0.3817908"
       inkscape:rounded="0"
       inkscape:randomized="0"
       d="m -464.18054,630.05117 -4.42436,43.12794 33.01954,28.09458 -42.38432,9.11945 -16.51593,40.08515 -21.77059,-37.49182 -43.22694,-3.32059 28.92935,-32.29067 -10.19979,-42.13738 39.64992,17.53508 z"
       transform="scale(0.26458333)"
       inkscape:transform-center-x="-0.36073322"
       inkscape:transform-center-y="1.3026357" />
    <path
       sodipodi:type="star"
       style="fill:#e3dbdb"
       id="path2809"
       inkscape:flatsided="false"
       sodipodi:sides="5"
       sodipodi:cx="-469.32382"
       sodipodi:cy="801.065"
       sodipodi:r1="41.863228"
       sodipodi:r2="20.931614"
       sodipodi:arg1="-0.82884918"
       sodipodi:arg2="-0.20053064"
       inkscape:rounded="0"
       inkscape:randomized="0"
       d="m -441.03581,770.20535 -7.77585,26.6903 17.57859,21.53669 -27.78685,0.85249 -15.05053,23.37343 -9.39738,-26.16343 -26.88032,-7.09112 21.97895,-17.02238 -1.56242,-27.75598 22.98111,15.64302 z"
       transform="scale(0.26458333)"
       inkscape:transform-center-x="0.38808653"
       inkscape:transform-center-y="0.68177647" />
    <path
       sodipodi:type="star"
       style="fill:#e3dbdb"
       id="path2811"
       inkscape:flatsided="false"
       sodipodi:sides="5"
       sodipodi:cx="-491.18274"
       sodipodi:cy="898.78723"
       sodipodi:r1="32.731598"
       sodipodi:r2="16.365801"
       sodipodi:arg1="-0.78539816"
       sodipodi:arg2="-0.15707963"
       inkscape:rounded="0"
       inkscape:randomized="0"
       d="m -468.038,875.6425 -6.98043,20.58456 12.99976,17.42001 -21.73415,-0.2778 -12.55027,17.74658 -6.45202,-20.75625 -20.75625,-6.45202 17.74659,-12.55027 -0.2778,-21.73415 17.42001,12.99976 z"
       transform="scale(0.26458333)"
       inkscape:transform-center-x="0.41864201"
       inkscape:transform-center-y="0.41864065" />
    <path
       sodipodi:type="star"
       style="fill:#e3dbdb"
       id="path2813"
       inkscape:flatsided="false"
       sodipodi:sides="5"
       sodipodi:cx="-537.47223"
       sodipodi:cy="954.07745"
       sodipodi:r1="29.907379"
       sodipodi:r2="14.95369"
       sodipodi:arg1="-2.0152155"
       sodipodi:arg2="-1.386897"
       inkscape:rounded="0"
       inkscape:randomized="0"
       d="m -550.33041,927.07526 15.59268,12.30065 18.97271,-5.87145 -6.8802,18.63063 11.44697,16.22974 -19.84489,-0.78628 -11.89809,15.90199 -5.38461,-19.11659 -18.8004,-6.40177 16.51702,-11.02842 z"
       transform="scale(0.26458333)"
       inkscape:transform-center-x="0.44714761"
       inkscape:transform-center-y="0.31761491" />
    <path
       sodipodi:type="star"
       style="fill:#e3dbdb"
       id="path2815"
       inkscape:flatsided="false"
       sodipodi:sides="5"
       sodipodi:cx="-612.04968"
       sodipodi:cy="1014.5109"
       sodipodi:r1="21.821066"
       sodipodi:r2="10.910533"
       sodipodi:arg1="-0.78539816"
       sodipodi:arg2="-0.15707963"
       inkscape:rounded="0"
       inkscape:randomized="0"
       d="m -596.61986,999.0811 -4.65362,13.723 8.66651,11.6134 -14.48943,-0.1852 -8.36685,11.831 -4.30134,-13.8375 -13.83751,-4.3013 11.83106,-8.3669 -0.1852,-14.48939 11.61334,8.66649 z"
       transform="scale(0.26458333)"
       inkscape:transform-center-x="0.27909373"
       inkscape:transform-center-y="0.27909239" />
    <path
       sodipodi:type="star"
       style="fill:#e3dbdb"
       id="path2817"
       inkscape:flatsided="false"
       sodipodi:sides="5"
       sodipodi:cx="-693.05627"
       sodipodi:cy="1035.084"
       sodipodi:r1="23.604492"
       sodipodi:r2="11.802246"
       sodipodi:arg1="-0.51238946"
       sodipodi:arg2="0.11592907"
       inkscape:rounded="0"
       inkscape:randomized="0"
       d="m -672.48318,1023.5116 -8.85007,12.9375 5.64039,14.625 -15.03915,-4.419 -12.16618,9.8837 -0.44463,-15.6686 -13.15951,-8.5165 14.76435,-5.2648 4.03317,-15.1472 9.5695,12.4149 z"
       transform="scale(0.26458333)"
       inkscape:transform-center-x="0.38006569"
       inkscape:transform-center-y="-0.22323658" />
    <path
       sodipodi:type="star"
       style="fill:#e3dbdb"
       id="path2819"
       inkscape:flatsided="false"
       sodipodi:sides="5"
       sodipodi:cx="-758.633"
       sodipodi:cy="1031.2266"
       sodipodi:r1="15.695417"
       sodipodi:r2="7.8477087"
       sodipodi:arg1="-0.61072596"
       sodipodi:arg2="0.017592566"
       inkscape:rounded="0"
       inkscape:randomized="0"
       d="m -745.77481,1022.2258 -5.01169,9.1388 4.68711,9.3094 -10.2402,-1.9423 -7.4054,7.3345 -1.3171,-10.3393 -9.26389,-4.7764 9.42618,-4.4477 1.68,-10.2865 7.1428,7.5905 z"
       transform="scale(0.26458333)"
       inkscape:transform-center-x="0.37501809"
       inkscape:transform-center-y="-0.022578268" />
    <path
       sodipodi:type="star"
       style="fill:#e3dbdb"
       id="path2821"
       inkscape:flatsided="false"
       sodipodi:sides="5"
       sodipodi:cx="-839.63959"
       sodipodi:cy="1022.2258"
       sodipodi:r1="14.37589"
       sodipodi:r2="7.1879449"
       sodipodi:arg1="-0.46364761"
       sodipodi:arg2="0.16467092"
       inkscape:rounded="0"
       inkscape:randomized="0"
       d="m -826.7814,1015.7967 -5.76748,7.6074 2.99712,9.0639 -9.01731,-3.1344 -7.69408,5.6513 0.19447,-9.5445 -7.75233,-5.5712 9.13751,-2.7645 2.90288,-9.0944 5.45282,7.836 z"
       transform="scale(0.26458333)"
       inkscape:transform-center-x="0.17504965"
       inkscape:transform-center-y="-0.19268133" />
    <path
       sodipodi:type="star"
       style="fill:#e3dbdb"
       id="path2823"
       inkscape:flatsided="false"
       sodipodi:sides="5"
       sodipodi:cx="-882.07159"
       sodipodi:cy="1002.9386"
       sodipodi:r1="9.7925034"
       sodipodi:r2="4.8962517"
       sodipodi:arg1="-0.40489179"
       sodipodi:arg2="0.22342674"
       inkscape:rounded="0"
       inkscape:randomized="0"
       d="m -873.07086,999.08114 -4.22618,4.94236 1.67548,6.2833 -6.00639,-2.4921 -5.45803,3.5351 0.51402,-6.4825 -5.04873,-4.0985 6.32408,-1.51429 2.33774,-6.06813 3.39447,5.5466 z"
       transform="scale(0.26458333)"
       inkscape:transform-center-x="0.072541727"
       inkscape:transform-center-y="-0.17740366" />
    <path
       sodipodi:type="star"
       style="fill:#e3dbdb"
       id="path2828"
       inkscape:flatsided="false"
       sodipodi:sides="5"
       sodipodi:cx="-914.21704"
       sodipodi:cy="983.65125"
       sodipodi:r1="6.4290934"
       sodipodi:r2="3.2145467"
       sodipodi:arg1="2.2142974"
       sodipodi:arg2="2.842616"
       inkscape:rounded="0"
       inkscape:randomized="0"
       d="m -918.0745,988.79452 0.78551,-4.19645 -3.01162,-3.02612 4.23381,-0.54971 1.94737,-3.79935 1.83112,3.85672 4.21516,0.67799 -3.10211,2.93329 0.65774,4.21837 -3.74832,-2.04384 z"
       transform="scale(0.26458333)"
       inkscape:transform-center-x="-0.0079834244"
       inkscape:transform-center-y="-0.15482877" />
    <rect
       style="fill:#e3dbdb;stroke-width:0.264583"
       id="rect2852"
       width="82.387299"
       height="94.130203"
       x="-217.80142"
       y="-63.37001"
       transform="rotate(4.6663821)" />
    <path
       style="fill:none;stroke:#000000;stroke-width:0.264583px;stroke-linecap:butt;stroke-linejoin:miter;stroke-opacity:1"
       d="m -366.74226,-14.969072 c 0.10528,-1.231991 34.3532,-13.592226 31.29896,20.0721648 -1.11983,12.3430242 -19.9585,3.8559345 -29.93813,5.7835052 -9.97966,1.92757 5.58855,-19.6881976 -1.36083,-22.793814 -5.84087,-2.610236 4.10578,34.72986 21.7732,18.3711333 l 17.3505,-19.3917523 -40.48453,-1.701031"
       id="path3024"
       sodipodi:nodetypes="csssccc" />
  </g>
</svg>
